<?xml version="1.0" encoding="utf-8"?>
<!-- Generator: Adobe Illustrator 24.2.1, SVG Export Plug-In . SVG Version: 6.00 Build 0)  -->
<svg version="1.1" id="Layer_1" xmlns="http://www.w3.org/2000/svg" xmlns:xlink="http://www.w3.org/1999/xlink" x="0px" y="0px"
	 viewBox="0 0 236.5 3" style="enable-background:new 0 0 236.5 3;" xml:space="preserve">
<style type="text/css">
	.st0{fill-rule:evenodd;clip-rule:evenodd;fill:#33312F;}
</style>
<path class="st0" d="M235.2,0.1c-2.1-0.1,0.1-0.2-12.1,0c-16.3,0.2-37.9,0.4-55.9,0c-18-0.4-27.7,0.3-40,0c-13.1-0.3-55.2,0-62,0
	c0,0,0,0,0,0c-1.3,0-2.6,0-4,0.1c-6.5,0.2-15,0.4-22.2,0c-7.2-0.4-13.4,0.3-18.2,0c-5.2-0.3-17.9,0-20.6,0C0,0.9,0,1.8,0.1,2.6
	c2.3,0,11.1-0.1,13.1,0c5.9,0.2,14.1,0.4,18.6,0c4.5-0.4,5,0.1,14.3,0c5.1-0.1,13.2-0.1,19.4-0.1c6.4,0,37.7-0.1,42.7,0
	c14.9,0.2,29.6,0.4,41,0c11.4-0.4,12.9,0.1,36,0c23.3-0.1,50.1,0,50.8,0C236.1,2.6,237.5,0.2,235.2,0.1z"/>
</svg>
